<svg id="svg" version="1.1" width="400" height="400" viewBox="0 0 400 400" xmlns="http://www.w3.org/2000/svg" xmlns:xlink="http://www.w3.org/1999/xlink"><g id="svgg"><path id="path0" d="M192.578 37.372 C 140.084 41.132,97.758 78.273,87.711 129.392 C 70.658 216.156,151.914 288.893,235.687 261.854 C 290.877 244.041,323.866 186.428,312.261 128.125 C 301.239 72.752,249.230 33.314,192.578 37.372 M213.870 54.888 C 294.994 66.858,326.461 166.044,267.343 223.438 C 219.750 269.642,140.640 254.673,111.482 193.945 C 97.411 164.640,99.632 128.041,117.172 100.187 C 134.120 73.272,160.752 57.262,193.750 54.151 C 197.290 53.818,209.693 54.272,213.870 54.888 M191.016 67.849 C 178.127 69.223,164.727 73.880,154.718 80.465 C 150.958 82.939,145.703 86.963,145.703 87.368 C 145.703 87.709,151.640 94.421,157.568 100.781 C 161.909 105.439,162.992 106.841,163.664 108.673 C 164.290 110.378,165.000 111.362,166.694 112.872 C 169.353 115.242,168.852 115.222,171.687 113.074 C 176.966 109.075,185.549 105.552,192.433 104.560 L 195.898 104.061 196.230 98.222 C 196.412 95.010,196.588 86.803,196.620 79.982 L 196.680 67.582 194.531 67.643 C 193.350 67.676,191.768 67.769,191.016 67.849 M203.516 79.627 C 203.516 91.180,203.483 91.705,202.734 92.383 C 202.026 93.024,201.953 93.586,201.953 98.400 L 201.954 103.711 206.771 104.385 C 212.755 105.222,219.684 107.467,224.252 110.049 C 224.377 110.120,225.293 108.956,226.286 107.463 C 227.934 104.984,233.067 100.084,239.063 95.265 C 240.161 94.383,241.810 92.089,244.185 88.143 L 247.689 82.323 246.801 81.689 C 235.869 73.879,217.500 67.578,205.667 67.578 L 203.516 67.578 203.516 79.627 M251.493 88.379 C 250.543 89.507,248.285 92.363,246.476 94.727 C 244.667 97.090,241.419 100.801,239.259 102.974 C 237.099 105.147,234.041 108.445,232.463 110.303 L 229.595 113.682 230.715 114.529 C 235.155 117.885,241.707 126.345,244.535 132.372 C 246.127 135.764,245.023 135.846,254.878 131.607 L 263.129 128.057 265.024 124.946 C 267.087 121.557,266.616 121.881,273.706 118.985 L 277.685 117.361 275.642 113.465 C 271.207 105.007,265.442 97.412,258.328 90.658 C 252.991 85.590,253.655 85.811,251.493 88.379 M137.388 95.002 C 96.039 140.622,115.592 214.549,174.023 233.509 C 181.651 235.984,194.647 238.294,195.599 237.344 C 195.764 237.180,195.994 231.127,196.110 223.894 C 196.291 212.618,196.417 210.535,196.989 209.290 C 197.468 208.247,197.656 206.802,197.656 204.160 L 197.656 200.482 195.020 200.218 C 156.738 196.383,138.121 151.615,162.398 121.775 C 163.905 119.923,164.435 118.991,164.175 118.650 C 162.168 116.018,157.349 110.194,156.692 109.607 C 156.234 109.198,155.859 108.511,155.859 108.081 C 155.859 107.447,141.638 92.372,140.573 91.877 C 140.436 91.814,139.003 93.220,137.388 95.002 M275.000 125.728 C 269.295 127.586,269.548 127.423,267.211 130.750 C 264.881 134.068,265.586 133.639,257.174 136.860 C 248.120 140.327,247.569 140.605,247.804 141.587 C 248.702 145.321,249.018 155.460,248.337 158.666 C 248.285 158.913,250.184 159.931,252.558 160.929 C 261.348 164.624,261.870 164.932,263.168 167.180 C 264.334 169.200,270.028 172.402,279.385 176.299 L 280.841 176.905 281.617 174.293 C 285.133 162.467,285.701 148.564,283.185 135.938 C 282.392 131.956,280.095 124.204,279.720 124.242 C 279.595 124.254,277.471 124.923,275.000 125.728 M247.057 164.598 C 246.975 164.841,246.534 166.182,246.076 167.578 C 244.869 171.259,242.166 176.267,239.314 180.108 L 236.826 183.458 241.769 187.985 C 246.525 192.342,246.741 192.607,247.477 195.023 C 248.202 197.401,260.160 210.156,261.664 210.156 C 262.674 210.156,270.335 200.088,273.382 194.758 C 275.266 191.461,279.122 182.891,278.841 182.623 C 278.770 182.555,274.758 180.534,269.927 178.133 L 261.143 173.766 260.254 171.551 L 259.365 169.336 253.285 166.747 C 249.506 165.137,247.149 164.324,247.057 164.598 M231.338 188.671 C 228.750 191.085,224.237 194.063,220.924 195.543 C 217.845 196.919,217.863 196.207,220.736 203.206 C 222.757 208.127,223.075 209.223,222.858 210.509 C 222.646 211.762,222.834 212.483,223.950 214.702 C 224.691 216.177,226.272 219.780,227.463 222.710 C 228.654 225.640,230.039 228.846,230.541 229.833 L 231.453 231.629 236.137 229.357 C 243.298 225.884,250.212 221.285,256.250 215.979 L 257.617 214.777 250.294 207.682 L 242.970 200.586 242.503 197.519 L 242.035 194.453 237.929 190.586 C 233.125 186.061,233.896 186.285,231.338 188.671 M212.109 198.714 C 210.563 199.166,209.065 199.446,204.025 200.225 L 202.776 200.418 202.561 205.775 C 202.443 208.722,202.247 217.159,202.126 224.525 L 201.906 237.917 202.809 237.733 C 203.305 237.632,205.205 237.445,207.031 237.318 C 212.063 236.968,223.973 234.665,225.441 233.758 C 225.733 233.578,224.385 230.065,220.806 221.680 C 218.898 217.209,218.648 216.320,218.713 214.245 C 218.781 212.051,216.592 204.561,214.359 199.349 L 213.867 198.201 212.109 198.714 M72.701 302.394 C 66.421 303.437,62.886 307.844,62.894 314.620 C 62.902 321.247,65.022 323.481,74.414 326.760 C 80.510 328.888,81.643 329.849,81.639 332.891 C 81.632 339.168,71.185 339.145,70.441 332.866 L 70.204 330.859 66.102 330.859 L 62.000 330.859 62.227 333.053 C 63.732 347.642,88.019 347.882,89.666 333.324 C 90.466 326.250,88.013 323.230,78.906 320.079 C 71.576 317.543,70.245 316.318,70.917 312.732 C 71.992 307.003,80.586 307.611,81.466 313.478 L 81.729 315.234 85.452 315.234 L 89.175 315.234 88.940 312.712 C 88.395 306.873,84.779 303.241,78.627 302.352 C 75.622 301.917,75.568 301.918,72.701 302.394 M106.657 302.378 C 99.703 303.597,95.917 307.895,94.853 315.780 C 94.283 320.004,94.662 331.591,95.453 334.129 C 99.624 347.515,120.353 347.412,124.527 333.984 C 125.363 331.297,125.504 314.907,124.715 312.305 C 122.495 304.991,115.061 300.904,106.657 302.378 M272.661 302.400 C 263.785 303.870,261.176 308.945,261.394 324.312 L 261.523 333.398 262.807 336.109 C 268.621 348.386,287.758 346.227,290.199 333.018 C 290.859 329.448,291.123 329.688,286.523 329.688 C 282.816 329.688,282.422 329.756,282.422 330.399 C 282.422 336.898,274.480 339.393,270.835 334.039 C 269.149 331.563,268.560 319.151,269.907 314.493 C 272.111 306.874,281.016 307.383,282.266 315.199 L 282.522 316.797 286.431 316.797 L 290.339 316.797 290.148 314.160 C 289.530 305.660,282.307 300.802,272.661 302.400 M308.733 302.322 C 299.458 303.784,295.983 310.537,296.642 325.822 C 297.210 339.012,301.374 343.871,312.109 343.871 C 319.895 343.871,324.540 340.828,326.841 334.221 C 327.850 331.324,327.859 315.336,326.853 312.061 C 324.597 304.713,317.561 300.931,308.733 302.322 M131.250 323.047 L 131.250 343.359 142.969 343.359 L 154.688 343.359 154.688 339.648 L 154.688 335.938 147.070 335.938 L 139.453 335.938 139.453 319.336 L 139.453 302.734 135.352 302.734 L 131.250 302.734 131.250 323.047 M169.328 303.223 C 169.229 303.491,168.256 306.787,167.166 310.547 C 166.075 314.307,163.524 323.030,161.497 329.932 C 159.471 336.835,157.813 342.679,157.813 342.921 C 157.813 343.218,159.175 343.359,162.046 343.359 L 166.279 343.359 167.236 339.160 L 168.192 334.961 174.507 334.854 C 181.864 334.729,181.181 334.296,182.221 339.746 L 182.909 343.359 187.353 343.359 C 189.809 343.359,191.797 343.198,191.797 342.999 C 191.797 342.800,189.248 333.731,186.133 322.845 C 183.018 311.959,180.469 302.980,180.469 302.893 C 180.469 302.443,169.495 302.768,169.328 303.223 M196.875 323.022 L 196.875 343.359 200.977 343.359 L 205.078 343.359 205.078 335.920 L 205.078 328.481 207.851 328.596 L 210.624 328.711 214.032 335.938 L 217.439 343.164 221.806 343.275 C 224.207 343.335,226.172 343.311,226.172 343.221 C 226.172 343.131,224.437 339.390,222.316 334.907 L 218.460 326.758 219.484 326.223 C 225.962 322.840,226.931 311.678,221.225 306.172 C 218.144 303.199,217.022 302.945,206.348 302.807 L 196.875 302.684 196.875 323.022 M233.203 321.235 C 233.203 331.410,233.091 340.550,232.955 341.547 L 232.706 343.359 237.031 343.359 L 241.356 343.359 241.392 323.047 L 241.428 302.734 237.316 302.734 L 233.203 302.734 233.203 321.235 M112.200 309.552 C 116.028 310.358,117.188 313.517,117.188 323.140 C 117.188 334.786,114.959 338.221,108.362 336.745 C 103.640 335.688,102.604 332.970,102.796 322.141 C 102.966 312.623,104.065 310.152,108.471 309.394 C 109.978 309.135,110.277 309.148,112.200 309.552 M314.249 309.420 C 318.636 310.638,319.670 313.635,319.470 324.551 C 319.343 331.475,319.288 331.921,318.359 333.561 C 315.183 339.172,306.509 337.603,305.067 331.157 C 304.274 327.609,304.714 315.445,305.715 313.281 C 307.332 309.783,310.459 308.368,314.249 309.420 M177.336 319.029 C 178.415 323.371,179.297 327.107,179.297 327.329 C 179.297 327.586,177.631 327.734,174.759 327.734 C 170.634 327.734,170.237 327.672,170.389 327.051 C 173.103 315.985,174.841 309.836,175.085 310.428 C 175.245 310.816,176.258 314.686,177.336 319.029 M214.044 310.733 C 217.042 312.283,217.792 316.893,215.461 319.439 L 214.124 320.898 209.601 321.030 L 205.078 321.161 205.078 315.659 L 205.078 310.156 209.004 310.156 C 211.701 310.156,213.278 310.337,214.044 310.733 M332.031 339.063 L 332.031 343.359 336.133 343.359 L 340.234 343.359 340.234 339.063 L 340.234 334.766 336.133 334.766 L 332.031 334.766 332.031 339.063 " stroke="none" fill="#040404" fill-rule="evenodd"></path><path id="path1" d="M0.000 200.000 L 0.000 400.000 200.000 400.000 L 400.000 400.000 400.000 200.000 L 400.000 0.000 200.000 0.000 L 0.000 0.000 0.000 200.000 M210.994 37.516 C 269.600 43.407,313.100 90.105,314.729 148.876 C 315.991 194.403,291.368 235.384,250.467 255.834 C 167.595 297.267,72.663 226.710,86.736 134.142 C 95.859 74.132,150.735 31.459,210.994 37.516 M191.016 54.562 C 145.130 59.265,109.636 93.599,103.254 139.453 C 94.596 201.659,148.573 257.070,210.742 249.797 C 279.121 241.799,318.173 168.538,286.872 106.978 C 269.082 71.989,229.919 50.574,191.016 54.562 M196.704 80.762 C 196.589 88.228,196.395 96.542,196.273 99.238 L 196.051 104.139 192.069 104.778 C 184.834 105.939,177.704 108.882,172.152 112.998 L 169.039 115.306 166.585 112.874 C 164.820 111.125,163.896 109.825,163.297 108.248 C 162.697 106.670,161.714 105.287,159.793 103.320 C 156.611 100.062,148.036 90.618,146.463 88.639 L 145.350 87.239 148.275 84.928 C 161.181 74.733,176.652 68.790,193.750 67.461 C 194.717 67.386,195.824 67.293,196.210 67.256 C 196.878 67.191,196.902 67.861,196.704 80.762 M211.719 68.017 C 223.087 69.549,233.948 73.450,243.789 79.537 C 248.268 82.308,248.224 81.646,244.356 88.109 L 240.980 93.748 234.570 99.278 C 229.767 103.421,227.714 105.478,226.381 107.482 C 225.403 108.953,224.541 110.156,224.466 110.156 C 224.391 110.156,223.012 109.548,221.402 108.804 C 215.845 106.237,209.169 104.486,204.037 104.252 L 202.053 104.162 201.811 101.593 C 201.311 96.305,201.489 93.458,202.370 92.638 C 203.152 91.909,203.176 91.519,203.165 79.867 C 203.159 73.256,203.253 67.687,203.374 67.491 C 203.599 67.127,206.441 67.306,211.719 68.017 M260.048 92.137 C 266.857 98.912,277.734 114.365,277.734 117.262 C 277.734 117.375,275.317 118.469,272.363 119.693 L 266.992 121.918 265.039 125.092 L 263.086 128.266 254.548 131.930 C 249.853 133.945,245.969 135.539,245.917 135.473 C 245.866 135.406,244.990 133.682,243.972 131.641 C 241.448 126.584,238.443 122.493,233.698 117.652 C 231.426 115.335,229.813 113.385,229.959 113.135 C 230.615 112.019,237.787 104.101,239.814 102.258 C 241.060 101.123,244.577 96.982,247.630 93.055 L 253.180 85.915 254.689 87.111 C 255.519 87.768,257.931 90.030,260.048 92.137 M155.853 107.934 C 155.856 108.322,156.703 109.553,157.734 110.668 C 158.766 111.783,160.792 114.145,162.237 115.917 L 164.865 119.139 162.673 121.724 C 138.987 149.644,155.863 194.470,191.992 199.601 C 193.711 199.845,195.688 200.130,196.387 200.235 L 197.656 200.426 197.656 204.265 C 197.656 206.517,197.435 208.732,197.121 209.621 C 196.735 210.716,196.508 214.771,196.304 224.221 C 196.148 231.417,195.888 237.445,195.726 237.617 C 194.493 238.919,176.776 235.064,168.750 231.746 C 113.606 208.953,97.363 139.102,137.006 95.235 L 140.430 91.446 148.138 99.336 C 152.377 103.676,155.849 107.545,155.853 107.934 M280.747 125.977 C 285.647 139.937,286.134 158.146,282.015 173.410 C 280.909 177.510,281.471 177.483,273.726 173.815 C 270.023 172.061,266.355 170.339,265.577 169.989 C 264.643 169.569,263.867 168.797,263.295 167.718 C 261.896 165.082,259.976 163.981,249.805 159.983 L 248.242 159.369 248.242 152.438 C 248.242 148.627,248.093 144.346,247.910 142.927 C 247.609 140.593,247.646 140.324,248.300 140.119 C 248.698 139.995,252.607 138.503,256.986 136.805 L 264.949 133.717 267.157 130.628 L 269.364 127.539 274.038 125.898 C 279.661 123.924,280.028 123.928,280.747 125.977 M253.737 166.751 C 259.470 169.163,259.739 169.386,260.882 172.665 C 261.178 173.514,262.779 174.447,270.230 178.110 L 279.221 182.530 277.488 186.667 C 274.043 194.889,263.749 210.352,261.720 210.352 C 260.244 210.352,247.804 197.199,247.158 194.956 C 246.544 192.820,246.145 192.248,243.645 189.925 C 242.094 188.484,239.878 186.412,238.720 185.321 L 236.614 183.337 238.533 180.955 C 241.489 177.287,244.308 172.205,245.751 167.940 C 246.775 164.916,247.197 164.112,247.678 164.265 C 248.017 164.372,250.744 165.491,253.737 166.751 M242.242 195.193 C 242.383 195.664,242.620 196.982,242.768 198.122 C 243.037 200.188,243.063 200.221,250.327 207.545 L 257.617 214.895 255.859 216.482 C 249.874 221.885,234.193 231.641,231.493 231.641 C 231.151 231.641,229.034 227.075,226.911 221.760 C 226.071 219.656,224.770 216.716,224.020 215.227 C 222.966 213.134,222.656 212.042,222.656 210.414 C 222.656 208.733,222.179 207.148,220.290 202.549 C 218.989 199.381,217.978 196.759,218.044 196.723 C 218.110 196.686,219.301 196.134,220.692 195.496 C 223.959 193.996,229.352 190.458,231.836 188.183 L 233.789 186.395 237.887 190.365 C 240.142 192.549,242.101 194.721,242.242 195.193 M216.489 204.705 C 218.508 210.288,218.808 211.478,218.775 213.762 C 218.740 216.175,218.957 216.914,221.414 222.747 C 225.458 232.346,225.937 233.568,225.734 233.771 C 224.810 234.696,211.998 237.147,205.153 237.709 L 201.907 237.976 202.125 224.164 C 202.245 216.567,202.441 208.044,202.560 205.224 L 202.776 200.097 205.392 199.837 C 206.831 199.694,209.238 199.249,210.742 198.849 C 212.246 198.449,213.631 198.156,213.821 198.199 C 214.010 198.241,215.211 201.169,216.489 204.705 M82.422 303.178 C 86.760 305.190,89.396 309.602,89.450 314.941 C 89.452 315.103,87.607 315.234,85.352 315.234 L 81.250 315.234 81.250 313.848 C 81.250 310.579,79.063 308.777,75.456 309.077 C 72.588 309.314,71.094 310.832,71.094 313.508 C 71.094 316.854,71.732 317.436,77.539 319.383 C 87.830 322.834,90.124 325.277,89.762 332.401 C 88.953 348.356,64.370 348.461,61.907 332.520 L 61.650 330.859 65.957 330.859 L 70.265 330.859 70.534 332.715 C 71.056 336.316,72.404 337.278,76.593 337.041 C 79.603 336.871,80.637 336.218,81.216 334.121 C 82.157 330.713,80.609 329.073,74.447 326.948 C 65.358 323.814,63.075 321.598,62.611 315.457 C 61.844 305.321,72.630 298.636,82.422 303.178 M114.648 302.484 C 119.044 303.658,122.205 306.289,124.101 310.352 L 125.195 312.695 125.195 322.852 C 125.195 334.642,124.939 335.794,121.473 339.587 C 115.062 346.602,101.375 345.352,96.669 337.322 C 93.619 332.118,93.623 313.969,96.675 308.762 C 99.850 303.344,107.658 300.617,114.648 302.484 M282.594 303.135 C 287.067 304.837,289.819 308.782,290.455 314.400 L 290.726 316.797 286.636 316.797 L 282.546 316.797 282.062 314.631 C 280.634 308.252,273.599 307.295,270.703 313.087 C 269.752 314.988,269.727 315.260,269.727 323.438 L 269.727 331.836 270.787 333.641 C 272.165 335.984,273.952 336.870,276.820 336.632 C 280.050 336.364,281.278 334.939,282.216 330.371 L 282.437 329.297 286.587 329.297 L 290.738 329.297 290.497 331.874 C 288.925 348.707,263.731 348.337,261.340 331.445 C 259.728 320.055,261.486 309.574,265.665 305.665 C 269.635 301.951,276.708 300.894,282.594 303.135 M317.398 302.550 C 321.622 303.632,324.923 306.606,326.641 310.875 C 328.036 314.340,328.010 331.838,326.606 335.324 C 322.121 346.456,303.574 347.308,298.342 336.623 C 295.661 331.146,295.719 314.705,298.438 309.374 C 301.544 303.287,309.334 300.483,317.398 302.550 M139.453 319.141 L 139.453 335.547 147.070 335.547 L 154.688 335.547 154.688 339.453 L 154.688 343.359 142.969 343.359 L 131.250 343.359 131.247 325.098 C 131.245 315.054,131.132 305.913,130.997 304.785 L 130.751 302.734 135.102 302.734 L 139.453 302.734 139.453 319.141 M186.359 323.047 L 192.114 343.164 187.606 343.275 C 182.256 343.406,182.961 343.924,181.947 339.111 L 181.114 335.156 174.752 335.156 L 168.389 335.156 168.001 336.621 C 167.788 337.427,167.423 338.965,167.191 340.039 C 166.410 343.651,166.877 343.359,161.861 343.359 C 157.761 343.359,157.388 343.300,157.585 342.676 C 157.851 341.833,165.304 316.385,167.598 308.486 L 169.274 302.714 174.940 302.822 L 180.605 302.930 186.359 323.047 M218.251 303.811 C 226.899 308.432,227.429 323.865,219.035 326.663 C 218.724 326.767,222.772 335.833,225.838 341.895 L 226.578 343.359 221.963 343.359 L 217.348 343.359 213.857 335.938 L 210.365 328.516 207.685 328.516 L 205.005 328.516 205.139 335.938 L 205.273 343.360 201.074 343.360 L 196.875 343.359 196.875 323.022 L 196.875 302.686 206.738 302.808 C 216.103 302.924,216.685 302.974,218.251 303.811 M241.406 323.047 L 241.406 343.359 237.109 343.359 L 232.813 343.359 232.813 323.047 L 232.813 302.734 237.109 302.734 L 241.406 302.734 241.406 323.047 M106.748 310.168 C 101.497 312.846,100.912 332.036,105.970 335.710 C 108.692 337.688,113.603 336.816,115.685 333.984 C 117.480 331.544,117.803 316.918,116.143 313.245 C 114.570 309.762,110.290 308.360,106.748 310.168 M308.387 310.326 C 305.159 312.261,303.576 321.915,305.112 330.299 C 306.457 337.644,315.119 339.438,318.327 333.036 C 320.176 329.346,319.886 315.406,317.893 312.182 C 316.203 309.448,311.412 308.512,308.387 310.326 M172.619 318.783 L 170.433 327.344 174.820 327.344 L 179.206 327.344 177.077 318.854 C 175.906 314.184,174.915 310.332,174.876 310.293 C 174.837 310.253,173.821 314.074,172.619 318.783 M205.078 315.668 L 205.078 321.180 209.354 321.034 C 214.295 320.865,215.447 320.320,216.367 317.720 C 218.037 312.998,215.013 310.163,208.301 310.158 L 205.078 310.156 205.078 315.668 M340.234 339.063 L 340.234 343.359 336.133 343.359 L 332.031 343.359 332.031 339.063 L 332.031 334.766 336.133 334.766 L 340.234 334.766 340.234 339.063 " stroke="none" fill="#e6e3dd" fill-rule="evenodd"></path><path id="path2" d="M198.741 54.193 C 199.660 54.275,201.066 54.274,201.866 54.190 C 202.666 54.106,201.914 54.039,200.195 54.040 C 198.477 54.042,197.822 54.110,198.741 54.193 M201.653 95.703 C 201.653 96.455,201.734 96.763,201.832 96.387 C 201.930 96.011,201.930 95.396,201.832 95.020 C 201.734 94.644,201.653 94.951,201.653 95.703 M85.263 151.172 C 85.263 152.139,85.339 152.534,85.432 152.051 C 85.525 151.567,85.525 150.776,85.432 150.293 C 85.339 149.810,85.263 150.205,85.263 151.172 M196.582 267.847 C 196.958 267.946,197.573 267.946,197.949 267.847 C 198.325 267.749,198.018 267.669,197.266 267.669 C 196.514 267.669,196.206 267.749,196.582 267.847 M200.488 267.858 C 201.079 267.947,202.046 267.947,202.637 267.858 C 203.228 267.768,202.744 267.695,201.563 267.695 C 200.381 267.695,199.897 267.768,200.488 267.858 M232.938 316.406 C 232.938 317.803,233.008 318.374,233.095 317.676 C 233.182 316.978,233.182 315.835,233.095 315.137 C 233.008 314.438,232.938 315.010,232.938 316.406 M232.976 326.563 C 232.976 330.752,233.033 332.466,233.104 330.371 C 233.174 328.276,233.174 324.849,233.104 322.754 C 233.033 320.659,232.976 322.373,232.976 326.563 M269.239 322.461 C 269.243 323.320,269.323 323.626,269.417 323.140 C 269.510 322.654,269.507 321.951,269.409 321.577 C 269.311 321.204,269.235 321.602,269.239 322.461 M144.629 335.838 C 146.509 335.909,149.585 335.909,151.465 335.838 C 153.345 335.766,151.807 335.708,148.047 335.708 C 144.287 335.708,142.749 335.766,144.629 335.838 " stroke="none" fill="#8c8a87" fill-rule="evenodd"></path><path id="path3" d="M196.650 76.172 C 196.650 80.791,196.707 82.681,196.776 80.371 C 196.845 78.062,196.845 74.282,196.776 71.973 C 196.707 69.663,196.650 71.553,196.650 76.172 M269.124 82.520 C 270.082 83.540,270.917 84.375,270.980 84.375 C 271.273 84.375,270.963 84.024,269.238 82.406 L 267.383 80.664 269.124 82.520 M297.747 149.609 C 297.747 150.361,297.827 150.669,297.926 150.293 C 298.024 149.917,298.024 149.302,297.926 148.926 C 297.827 148.550,297.747 148.857,297.747 149.609 M151.270 152.539 C 151.275 153.398,151.355 153.704,151.448 153.218 C 151.542 152.732,151.538 152.029,151.440 151.656 C 151.342 151.282,151.266 151.680,151.270 152.539 M251.172 200.586 C 251.901 201.338,252.585 201.953,252.692 201.953 C 252.800 201.953,252.291 201.338,251.563 200.586 C 250.834 199.834,250.149 199.219,250.042 199.219 C 249.935 199.219,250.443 199.834,251.172 200.586 M222.747 209.375 C 222.747 210.127,222.827 210.435,222.926 210.059 C 223.024 209.683,223.024 209.067,222.926 208.691 C 222.827 208.315,222.747 208.623,222.747 209.375 M196.215 215.039 C 196.217 216.328,196.290 216.808,196.377 216.106 C 196.464 215.404,196.462 214.350,196.373 213.763 C 196.284 213.176,196.213 213.750,196.215 215.039 M118.343 233.301 C 119.962 235.025,120.313 235.336,120.313 235.042 C 120.313 234.980,119.478 234.145,118.457 233.187 L 116.602 231.445 118.343 233.301 M232.911 304.102 C 232.915 304.961,232.995 305.267,233.089 304.781 C 233.182 304.295,233.179 303.592,233.081 303.218 C 232.983 302.845,232.907 303.242,232.911 304.102 M62.606 314.453 C 62.606 315.420,62.683 315.815,62.776 315.332 C 62.869 314.849,62.869 314.058,62.776 313.574 C 62.683 313.091,62.606 313.486,62.606 314.453 M261.085 323.438 C 261.085 325.908,261.149 326.919,261.226 325.684 C 261.304 324.448,261.304 322.427,261.226 321.191 C 261.149 319.956,261.085 320.967,261.085 323.438 M284.487 329.586 C 285.730 329.664,287.664 329.663,288.784 329.584 C 289.904 329.506,288.887 329.442,286.523 329.443 C 284.160 329.444,283.244 329.508,284.487 329.586 M168.223 335.059 C 168.123 335.220,170.002 335.305,172.399 335.249 C 180.301 335.063,181.148 334.914,174.730 334.839 C 171.252 334.799,168.324 334.897,168.223 335.059 M109.473 336.988 C 109.849 337.086,110.464 337.086,110.840 336.988 C 111.216 336.890,110.908 336.809,110.156 336.809 C 109.404 336.809,109.097 336.890,109.473 336.988 M232.919 339.453 C 232.919 340.420,232.995 340.815,233.088 340.332 C 233.181 339.849,233.181 339.058,233.088 338.574 C 232.995 338.091,232.919 338.486,232.919 339.453 " stroke="none" fill="#6b6c69" fill-rule="evenodd"></path><path id="path4" d="M232.911 306.836 C 232.915 307.695,232.995 308.001,233.089 307.515 C 233.182 307.029,233.179 306.326,233.081 305.952 C 232.983 305.579,232.907 305.977,232.911 306.836 M232.911 311.523 C 232.915 312.383,232.995 312.688,233.089 312.202 C 233.182 311.717,233.179 311.013,233.081 310.640 C 232.983 310.267,232.907 310.664,232.911 311.523 " stroke="none" fill="#75746c" fill-rule="evenodd"></path><path id="path5" d="M203.246 70.117 C 203.248 71.406,203.321 71.887,203.408 71.184 C 203.495 70.482,203.493 69.428,203.404 68.841 C 203.315 68.254,203.244 68.828,203.246 70.117 M203.291 82.617 C 203.292 87.344,203.348 89.224,203.417 86.795 C 203.485 84.366,203.485 80.499,203.416 78.201 C 203.347 75.903,203.291 77.891,203.291 82.617 M260.156 92.383 C 260.885 93.135,261.569 93.750,261.677 93.750 C 261.784 93.750,261.276 93.135,260.547 92.383 C 259.818 91.631,259.134 91.016,259.026 91.016 C 258.919 91.016,259.427 91.631,260.156 92.383 M248.544 151.563 C 248.544 152.529,248.620 152.925,248.713 152.441 C 248.806 151.958,248.806 151.167,248.713 150.684 C 248.620 150.200,248.544 150.596,248.544 151.563 " stroke="none" fill="#b6b5b2" fill-rule="evenodd"></path><path id="path6" d="" stroke="none" fill="#aca4a3" fill-rule="evenodd"></path><path id="path7" d="" stroke="none" fill="#746c6c" fill-rule="evenodd"></path><path id="path8" d="" stroke="none" fill="#acaca4" fill-rule="evenodd"></path></g></svg>